<svg width="150" height="150" viewBox="0 0 150 150" fill="none" xmlns="http://www.w3.org/2000/svg">
<path d="M55 62C55 56.6957 57.1071 51.6086 60.8579 47.8579C64.6086 44.1071 69.6957 42 75 42C80.3043 42 85.3914 44.1071 89.1421 47.8579C92.8929 51.6086 95 56.6957 95 62C95 85.3333 105 92 105 92H45C45 92 55 85.3333 55 62Z" stroke="#FF6F00" stroke-width="7" stroke-linecap="round" stroke-linejoin="round"/>
<path d="M69 106C69.5908 106.908 70.4592 107.666 71.5147 108.194C72.5701 108.722 73.7738 109 75 109C76.2262 109 77.4299 108.722 78.4853 108.194C79.5408 107.666 80.4092 106.908 81 106" stroke="#FF6F00" stroke-width="7" stroke-linecap="round" stroke-linejoin="round"/>
</svg>
