<svg width="150" height="150" viewBox="0 0 150 150" fill="none" xmlns="http://www.w3.org/2000/svg">
<path d="M105 78.7517C105 97.5017 91.875 106.877 76.275 112.314C75.4581 112.591 74.5708 112.578 73.7625 112.277C58.125 106.877 45 97.5017 45 78.7517V52.5017C45 51.5071 45.3951 50.5533 46.0984 49.85C46.8016 49.1468 47.7554 48.7517 48.75 48.7517C56.25 48.7517 65.625 44.2517 72.15 38.5517C72.9445 37.8729 73.9551 37.5 75 37.5C76.0449 37.5 77.0555 37.8729 77.85 38.5517C84.4125 44.2892 93.75 48.7517 101.25 48.7517C102.245 48.7517 103.198 49.1468 103.902 49.85C104.605 50.5533 105 51.5071 105 52.5017V78.7517Z" stroke="#FF6F00" stroke-width="7" stroke-linecap="round" stroke-linejoin="round"/>
</svg>
