<svg width="150" height="150" viewBox="0 0 150 150" fill="none" xmlns="http://www.w3.org/2000/svg">
<path d="M45 48H63C66.1826 48 69.2348 49.2643 71.4853 51.5147C73.7357 53.7652 75 56.8174 75 60V102C75 99.6131 74.0518 97.3239 72.364 95.636C70.6761 93.9482 68.3869 93 66 93H45V48Z" stroke="#FF6F00" stroke-width="7" stroke-linecap="round" stroke-linejoin="round"/>
<path d="M105 48H87C83.8174 48 80.7652 49.2643 78.5147 51.5147C76.2643 53.7652 75 56.8174 75 60V102C75 99.6131 75.9482 97.3239 77.636 95.636C79.3239 93.9482 81.6131 93 84 93H105V48Z" stroke="#FF6F00" stroke-width="7" stroke-linecap="round" stroke-linejoin="round"/>
</svg>
